<svg id="Layer_1" height="512" viewBox="0 0 512 512" width="512" xmlns="http://www.w3.org/2000/svg" xmlns:xlink="http://www.w3.org/1999/xlink" data-name="Layer 1"><linearGradient id="linear-gradient" gradientUnits="userSpaceOnUse" x1="256" x2="256" y1="450.359" y2="61.621"><stop offset="0" stop-color="#ff6100"/><stop offset="1" stop-color="#fdb82e"/></linearGradient><path d="m32.51 275.717-14.292-13.125 19.277-2.217c1.74-.2 3.248-1.296 3.977-2.889l8.065-17.649 8.066 17.649c.729 1.593 2.236 2.688 3.977 2.889l19.277 2.217-14.292 13.125c-1.29 1.185-1.866 2.958-1.519 4.674l3.848 19.02-16.899-9.537c-1.525-.86-3.389-.86-4.914 0l-16.9 9.537 3.848-19.02c.348-1.716-.229-3.489-1.519-4.674zm213.687 51.355c1.016-2.224 2.699-3.942 4.746-5.021v-31.573l-16.714 16.714c-1.154 1.155-2.804 1.671-4.407 1.388-1.608-.285-2.976-1.337-3.663-2.818l-28.4-61.17c-.549.14-1.083.278-1.636.418-39.665 10.099-80.681 20.542-80.681 62.907v34.719h123.642l7.113-15.563zm-176.038 49.276-30.963 3.562 22.955 21.081c1.29 1.185 1.866 2.958 1.519 4.674l-6.18 30.549 27.144-15.318c.763-.43 1.609-.646 2.457-.646s1.694.215 2.457.646l27.144 15.318-6.18-30.549c-.348-1.716.229-3.489 1.519-4.674l22.955-21.081-30.962-3.562c-1.74-.2-3.248-1.296-3.977-2.889l-12.956-28.347-12.955 28.347c-.729 1.593-2.236 2.688-3.977 2.889zm179.128-98.356-30.421-39.13c-3.662 1.103-7.414 2.155-11.266 3.177l24.617 53.022 17.071-17.07zm36.862-46.584-.175-9.072c-9.154 5.237-19.309 7.966-30.032 7.966s-20.876-2.729-30.03-7.965l-.175 9.071 30.206 38.854zm-4.085 77.171c-.29.051-.582.077-.872.077-1.314 0-2.59-.519-3.535-1.464l-16.714-16.714v31.511c2.099 1.075 3.825 2.818 4.86 5.083l7.113 15.563h123.527v-34.719c0-42.364-41.016-52.807-80.682-62.906-.552-.141-1.086-.278-1.635-.418l-28.399 61.169c-.688 1.481-2.055 2.533-3.663 2.818zm117.906 92.413c1.29 1.185 1.866 2.958 1.519 4.674l-6.179 30.548 27.143-15.317c.763-.43 1.609-.646 2.457-.646s1.694.215 2.457.646l27.143 15.317-6.179-30.548c-.348-1.716.229-3.489 1.519-4.674l22.955-21.081-30.963-3.562c-1.74-.2-3.248-1.296-3.977-2.889l-12.955-28.347-12.955 28.347c-.729 1.593-2.236 2.689-3.977 2.889l-30.963 3.562zm-126.316-32.685-16.946-37.078c-.055-.121-.201-.44-.708-.44s-.652.319-.707.439l-16.946 37.079c-.729 1.593-2.236 2.688-3.977 2.889l-40.501 4.66c-.138.016-.503.058-.656.531-.154.473.117.723.22.816l30.025 27.575c1.29 1.185 1.866 2.958 1.519 4.674l-8.083 39.958c-.027.136-.1.496.303.788s.722.112.843.044l35.504-20.036c1.525-.86 3.389-.86 4.914 0l35.505 20.036c.121.068.44.248.843-.044s.33-.652.303-.787l-8.083-39.958c-.348-1.716.229-3.489 1.519-4.674l30.026-27.575c.102-.093.373-.343.219-.816-.153-.473-.519-.515-.656-.531l-40.501-4.66c-1.74-.2-3.248-1.296-3.977-2.889zm196.874-110.822-8.066-17.649-8.065 17.649c-.729 1.593-2.236 2.688-3.977 2.889l-19.277 2.217 14.292 13.125c1.29 1.185 1.866 2.958 1.519 4.674l-3.848 19.02 16.899-9.537c.763-.43 1.609-.646 2.457-.646s1.694.215 2.457.646l16.9 9.537-3.848-19.02c-.348-1.716.229-3.489 1.519-4.674l14.292-13.125-19.277-2.217c-1.74-.2-3.248-1.296-3.977-2.889zm-214.586-37.184c13.882 0 26.684-5.483 37.021-15.857 13.301-13.349 21.838-34.34 22.811-55.619-1.306-.708-2.277-1.974-2.549-3.521l-.381-2.176c-2.106-12.093-3.498-20.083-11.53-28.93-1.28-1.41-3.664-4.036-4.636-4.331-.781-.238-3.792.827-4.928 1.227-1.424.501-2.79.987-4.112 1.458-14.022 4.989-23.286 8.284-40.444 8.328-7.869.034-14.592-.406-19.995-.749-9.699-.615-16.104-1.021-19.721 1.56-3.72 2.654-6.484 9.747-9.244 23.716-.265 1.339-1.06 2.451-2.13 3.169.916 21.364 9.467 42.467 22.82 55.868 10.336 10.375 23.138 15.858 37.02 15.858zm6.657 57.69 17.071 17.07 24.617-53.022c-3.853-1.022-7.605-2.075-11.267-3.177zm-60.929-164.442c6.508-4.645 14.751-4.123 26.16-3.4 5.531.351 11.81.76 19.338.729 15.445-.039 23.604-2.941 37.118-7.749 1.332-.474 2.709-.963 4.143-1.468 3.372-1.188 5.966-1.806 8.192-1.806 4.397 0 7.367 2.413 12.096 7.621 7.615 8.389 10.447 16.27 12.354 25.226 5.953-22.605 5.018-39.243-2.811-48.448-6.815-8.014-17.598-8.751-22.891-7.928-2.193.342-4.345-.8-5.292-2.805-3.435-7.276-12.224-10.078-18.991-11.147-24.112-3.811-60.734 7.311-75.369 22.88-7.213 7.673-7.741 27.543-4.572 46.554 2.731-9.636 5.901-14.958 10.525-18.257z" fill="url(#linear-gradient)"/></svg>